<?xml version="1.0" encoding="UTF-8"?>
<svg xmlns="http://www.w3.org/2000/svg" width="920" height="560" viewBox="0 0 920 560">
  <title>HealthApp Android</title>
  <defs>
    <linearGradient id="hero" x1="0" y1="0" x2="1" y2="1">
      <stop offset="0%" stop-color="#10AC84"/>
      <stop offset="55%" stop-color="#54A0FF"/>
      <stop offset="100%" stop-color="#2E86DE"/>
    </linearGradient>
    <linearGradient id="bezel" x1="0" y1="0" x2="0" y2="1">
      <stop offset="0%" stop-color="#1A2E33"/>
      <stop offset="100%" stop-color="#0B1C20"/>
    </linearGradient>
  </defs>
  <rect width="920" height="560" rx="28" fill="#EAF6F4"/>
  <g transform="translate(258,40)">
    <ellipse cx="190" cy="490" rx="150" ry="18" fill="#10AC84" opacity="0.12"/>
    <rect x="78" y="8" width="248" height="492" rx="42" fill="url(#bezel)"/>
    <rect x="90" y="24" width="224" height="460" rx="32" fill="#F2F2F7"/>
    <rect x="102" y="40" width="200" height="118" rx="22" fill="url(#hero)"/>
    <text x="118" y="68" font-family="Inter, Segoe UI, sans-serif" font-size="11" fill="#fff" opacity="0.9">20 сентября</text>
    <text x="118" y="92" font-family="Inter, Segoe UI, sans-serif" font-size="18" font-weight="700" fill="#fff">Добрый день</text>
    <text x="118" y="122" font-family="Inter, Segoe UI, sans-serif" font-size="13" fill="#fff" opacity="0.9">Индекс дня  82</text>
    <circle cx="274" cy="86" r="22" fill="none" stroke="#fff" stroke-width="5" opacity="0.35"/>
    <circle cx="274" cy="86" r="22" fill="none" stroke="#fff" stroke-width="5" stroke-dasharray="110" stroke-dashoffset="22" stroke-linecap="round"/>
    <rect x="102" y="172" width="96" height="72" rx="16" fill="#fff"/>
    <text x="114" y="196" font-family="Inter, Segoe UI, sans-serif" font-size="11" fill="#8E8E93">Сон</text>
    <text x="114" y="220" font-family="Inter, Segoe UI, sans-serif" font-size="16" font-weight="700" fill="#1C1C1E">7,4 ч</text>
    <rect x="206" y="172" width="96" height="72" rx="16" fill="#fff"/>
    <text x="218" y="196" font-family="Inter, Segoe UI, sans-serif" font-size="11" fill="#8E8E93">Вода</text>
    <text x="218" y="220" font-family="Inter, Segoe UI, sans-serif" font-size="16" font-weight="700" fill="#1C1C1E">1 450</text>
    <rect x="102" y="254" width="96" height="72" rx="16" fill="#fff"/>
    <text x="114" y="278" font-family="Inter, Segoe UI, sans-serif" font-size="11" fill="#8E8E93">Питание</text>
    <text x="114" y="302" font-family="Inter, Segoe UI, sans-serif" font-size="16" font-weight="700" fill="#1C1C1E">1 820</text>
    <rect x="206" y="254" width="96" height="72" rx="16" fill="#fff"/>
    <text x="218" y="278" font-family="Inter, Segoe UI, sans-serif" font-size="11" fill="#8E8E93">Шаги</text>
    <text x="218" y="302" font-family="Inter, Segoe UI, sans-serif" font-size="16" font-weight="700" fill="#1C1C1E">8 420</text>
    <rect x="102" y="340" width="200" height="64" rx="16" fill="#fff"/>
    <text x="118" y="366" font-family="Inter, Segoe UI, sans-serif" font-size="11" fill="#8E8E93">Фокус на сегодня</text>
    <text x="118" y="386" font-family="Inter, Segoe UI, sans-serif" font-size="13" font-weight="700" fill="#1C1C1E">Допить воду, лечь до 23:30</text>
    <rect x="102" y="416" width="200" height="52" rx="18" fill="#fff"/>
    <circle cx="128" cy="442" r="8" fill="url(#hero)"/>
    <circle cx="168" cy="442" r="8" fill="#D4F5E8"/>
    <circle cx="208" cy="442" r="8" fill="#D2E9FF"/>
    <circle cx="248" cy="442" r="8" fill="#D4F5E8"/>
    <circle cx="276" cy="442" r="8" fill="#D2E9FF"/>
  </g>
</svg>
