<?xml version="1.0" encoding="UTF-8"?>
<svg xmlns="http://www.w3.org/2000/svg" width="390" height="800" viewBox="0 0 390 800">
  <title>HealthApp home</title>
  <defs><linearGradient id="g" x1="0" y1="0" x2="1" y2="1"><stop offset="0%" stop-color="#10AC84"/><stop offset="100%" stop-color="#2E86DE"/></linearGradient></defs>
  <rect width="390" height="800" rx="40" fill="#0B1C20"/>
  <rect x="12" y="12" width="366" height="776" rx="32" fill="#F2F2F7"/>
  
  <rect x="150" y="22" width="90" height="10" rx="5" fill="#1C1C1E" opacity="0.18"/>
  <text x="32" y="52" font-family="Inter, Segoe UI, sans-serif" font-size="12" fill="#1C1C1E">9:41</text>
  <rect x="24" y="68" width="342" height="150" rx="26" fill="url(#g)"/>
  <text x="44" y="100" font-family="Inter, Segoe UI, sans-serif" font-size="12" fill="#fff" opacity="0.88">20 сентября</text>
  <text x="44" y="136" font-family="Inter, Segoe UI, sans-serif" font-size="26" font-weight="800" fill="#fff">Добрый день</text>
  <text x="44" y="164" font-family="Inter, Segoe UI, sans-serif" font-size="14" fill="#fff" opacity="0.9">Индекс дня</text>
  <circle cx="318" cy="143" r="34" fill="none" stroke="#fff" stroke-opacity="0.28" stroke-width="7"/>
  <circle cx="318" cy="143" r="34" fill="none" stroke="#fff" stroke-width="7" stroke-dasharray="170" stroke-dashoffset="32" stroke-linecap="round"/>
  <text x="318" y="149" text-anchor="middle" font-family="Inter, Segoe UI, sans-serif" font-size="18" font-weight="800" fill="#fff">82</text>
  <rect x="24" y="234" width="164" height="92" rx="22" fill="#fff"/>
  <rect x="36" y="248" width="36" height="36" rx="12" fill="#D2E9FF"/>
  <text x="80" y="264" font-family="Inter, Segoe UI, sans-serif" font-size="12" fill="#8E8E93">Сон</text>
  <text x="36" y="304" font-family="Inter, Segoe UI, sans-serif" font-size="20" font-weight="700" fill="#1C1C1E">7,4 ч</text>
  <rect x="202" y="234" width="164" height="92" rx="22" fill="#fff"/>
  <rect x="214" y="248" width="36" height="36" rx="12" fill="#D4F5E8"/>
  <text x="258" y="264" font-family="Inter, Segoe UI, sans-serif" font-size="12" fill="#8E8E93">Вода</text>
  <text x="214" y="304" font-family="Inter, Segoe UI, sans-serif" font-size="20" font-weight="700" fill="#1C1C1E">1 450 мл</text>
  <rect x="24" y="338" width="164" height="92" rx="22" fill="#fff"/>
  <rect x="36" y="352" width="36" height="36" rx="12" fill="#D2E9FF"/>
  <text x="80" y="368" font-family="Inter, Segoe UI, sans-serif" font-size="12" fill="#8E8E93">Питание</text>
  <text x="36" y="408" font-family="Inter, Segoe UI, sans-serif" font-size="20" font-weight="700" fill="#1C1C1E">1 820 ккал</text>
  <rect x="202" y="338" width="164" height="92" rx="22" fill="#fff"/>
  <rect x="214" y="352" width="36" height="36" rx="12" fill="#D4F5E8"/>
  <text x="258" y="368" font-family="Inter, Segoe UI, sans-serif" font-size="12" fill="#8E8E93">Активность</text>
  <text x="214" y="408" font-family="Inter, Segoe UI, sans-serif" font-size="20" font-weight="700" fill="#1C1C1E">8 420</text>
  <rect x="24" y="446" width="342" height="96" rx="22" fill="#fff"/>
  <rect x="24" y="446" width="6" height="96" rx="3" fill="url(#g)"/>
  <text x="48" y="478" font-family="Inter, Segoe UI, sans-serif" font-size="13" fill="#8E8E93">Фокус на сегодня</text>
  <text x="48" y="506" font-family="Inter, Segoe UI, sans-serif" font-size="16" font-weight="700" fill="#1C1C1E">Допить воду, лечь до 23:30</text>
  <rect x="24" y="558" width="342" height="78" rx="22" fill="#fff"/>
  <text x="44" y="590" font-family="Inter, Segoe UI, sans-serif" font-size="13" fill="#8E8E93">Самочувствие</text>
  <text x="44" y="614" font-family="Inter, Segoe UI, sans-serif" font-size="15" font-weight="600" fill="#1C1C1E">Энергия 4/5</text>

  <rect x="12" y="688" width="366" height="100" rx="28" fill="#fff"/>
  <rect x="46" y="706" width="52" height="36" rx="14" fill="url(#g)"/><text x="72" y="760" text-anchor="middle" font-family="Inter, Segoe UI, sans-serif" font-size="10" font-weight="700" fill="#2E86DE">Главная</text><text x="144" y="760" text-anchor="middle" font-family="Inter, Segoe UI, sans-serif" font-size="10" fill="#8E8E93">Сон</text><text x="196" y="760" text-anchor="middle" font-family="Inter, Segoe UI, sans-serif" font-size="10" fill="#8E8E93">Питание</text><text x="262" y="760" text-anchor="middle" font-family="Inter, Segoe UI, sans-serif" font-size="10" fill="#8E8E93">Активность</text><text x="328" y="760" text-anchor="middle" font-family="Inter, Segoe UI, sans-serif" font-size="10" fill="#8E8E93">Профиль</text>
</svg>
